<svg preserveAspectRatio="none" width="18" height="18" viewBox="0 0 18 18" fill="none" xmlns="http://www.w3.org/2000/svg">
<path d="M8.99 1.115C7.34957 1.11694 5.77688 1.76945 4.61691 2.92941C3.45695 4.08938 2.80443 5.66207 2.8025 7.3025C2.80053 8.64306 3.23843 9.94725 4.049 11.015C4.049 11.015 4.21775 11.2372 4.24531 11.2692L8.99 16.865L13.7369 11.2664C13.7617 11.2366 13.931 11.015 13.931 11.015L13.9316 11.0133C14.7417 9.94603 15.1794 8.64245 15.1775 7.3025C15.1756 5.66207 14.523 4.08938 13.3631 2.92941C12.2031 1.76945 10.6304 1.11694 8.99 1.115ZM8.99 9.5525C8.54499 9.5525 8.10998 9.42054 7.73997 9.17331C7.36996 8.92607 7.08157 8.57467 6.91127 8.16354C6.74097 7.7524 6.69642 7.3 6.78323 6.86355C6.87005 6.42709 7.08434 6.02618 7.39901 5.71151C7.71368 5.39684 8.11459 5.18255 8.55105 5.09573C8.9875 5.00892 9.4399 5.05347 9.85104 5.22377C10.2622 5.39407 10.6136 5.68246 10.8608 6.05247C11.108 6.42248 11.24 6.85749 11.24 7.3025C11.2393 7.89901 11.002 8.47087 10.5802 8.89267C10.1584 9.31446 9.58651 9.55176 8.99 9.5525Z" fill="#1A1A1A"/>
</svg>
