<svg preserveAspectRatio="none" width="14" height="15" viewBox="0 0 14 15" fill="none" xmlns="http://www.w3.org/2000/svg">
<path d="M18.7824 13.4629L15.6666 10.3476C15.5259 10.207 15.3353 10.1289 15.1353 10.1289H14.6259C15.4884 9.02586 16.001 7.63849 16.001 6.12926C16.001 2.53899 13.0914 -0.370102 9.50048 -0.370102C5.90959 -0.370102 3 2.53899 3 6.12926C3 9.71954 5.90959 12.6286 9.50048 12.6286C11.01 12.6286 12.3976 12.1162 13.5008 11.2538V11.7631C13.5008 11.9631 13.5789 12.1537 13.7195 12.2943L16.8354 15.4096C17.1292 15.7033 17.6042 15.7033 17.8948 15.4096L18.7793 14.5253C19.0731 14.2316 19.0731 13.7566 18.7824 13.4629ZM9.50048 10.1289C7.29094 10.1289 5.50018 8.34155 5.50018 6.12926C5.50018 3.9201 7.28781 2.12965 9.50048 2.12965C11.71 2.12965 13.5008 3.91698 13.5008 6.12926C13.5008 8.33842 11.7131 10.1289 9.50048 10.1289Z" fill="#01A8FE"/>
</svg>
