<svg preserveAspectRatio="none" width="79" height="31" viewBox="0 0 79 31" fill="none" xmlns="http://www.w3.org/2000/svg">
<path d="M13.8955 25.169L11.5127 24.4776C11.2627 24.4072 11.1221 24.1455 11.1924 23.8955L16.5244 5.52833C16.5947 5.27833 16.8564 5.13771 17.1064 5.20802L19.4893 5.89943C19.7393 5.96974 19.8799 6.23146 19.8096 6.48146L14.4775 24.8486C14.4033 25.0986 14.1455 25.2432 13.8955 25.169ZM9.44238 20.7861L11.1416 18.9736C11.3213 18.7822 11.3096 18.4776 11.1104 18.3018L7.57129 15.1885L11.1104 12.0752C11.3096 11.8994 11.3252 11.5947 11.1416 11.4033L9.44238 9.59083C9.2666 9.40333 8.96973 9.39161 8.77832 9.5713L3.14941 14.8447C2.9502 15.0283 2.9502 15.3447 3.14941 15.5283L8.77832 20.8057C8.96973 20.9854 9.2666 20.9776 9.44238 20.7861ZM22.2236 20.8096L27.8525 15.5322C28.0518 15.3486 28.0518 15.0322 27.8525 14.8486L22.2236 9.5674C22.0361 9.39161 21.7393 9.39943 21.5596 9.58693L19.8604 11.3994C19.6807 11.5908 19.6924 11.8955 19.8916 12.0713L23.4307 15.1885L19.8916 18.3018C19.6924 18.4776 19.6768 18.7822 19.8604 18.9736L21.5596 20.7861C21.7354 20.9776 22.0322 20.9854 22.2236 20.8096Z" fill="#0099FF"/>
</svg>
