<svg preserveAspectRatio="none" width="24" height="24" viewBox="0 0 24 24" fill="none" xmlns="http://www.w3.org/2000/svg">
<path d="M7.086 7.53V19H3.228V7.53H7.086ZM7.34 3.98C7.34 5.082 6.503 5.963 5.157 5.963H5.133C3.837 5.964 3 5.083 3 3.98C3 2.857 3.863 2 5.183 2C6.503 2 7.315 2.856 7.34 3.98ZM21 12.423V19H17.142V12.863C17.142 11.322 16.584 10.27 15.187 10.27C14.121 10.27 13.487 10.979 13.207 11.664C13.105 11.909 13.08 12.251 13.08 12.594V19H9.222C9.222 19 9.272 8.606 9.222 7.53H13.08V9.154C13.592 8.374 14.51 7.26 16.558 7.26C19.097 7.26 21 8.9 21 12.423Z" fill="white" fill-opacity="0.75"/>
</svg>
