<svg preserveAspectRatio="none" width="24" height="24" viewBox="0 0 24 24" fill="none" xmlns="http://www.w3.org/2000/svg">
<path fill-rule="evenodd" clip-rule="evenodd" d="M8.29 20C15.837 20 19.965 13.844 19.965 8.505C19.965 8.33 19.965 8.155 19.953 7.983C20.7544 7.4127 21.4477 6.70392 22 5.89C21.2505 6.21764 20.4565 6.43231 19.644 6.527C20.497 6.02599 21.1383 5.23148 21.448 4.292C20.6407 4.76302 19.7596 5.09434 18.842 5.272C18.0892 4.48969 17.0599 4.03331 15.9747 4.0006C14.8895 3.96789 13.8346 4.36145 13.036 5.097C12.514 5.57763 12.1291 6.18828 11.9205 6.86648C11.712 7.54469 11.6873 8.26612 11.849 8.957C10.2236 8.87941 8.63217 8.4641 7.17612 7.73754C5.72008 7.01098 4.43133 5.9891 3.392 4.737C2.86825 5.62637 2.70807 6.6836 2.94488 7.6882C3.18168 8.69279 3.79718 9.56718 4.663 10.129C4.01087 10.1108 3.37237 9.93806 2.8 9.625V9.676C2.801 11.599 4.178 13.255 6.092 13.636C5.48779 13.7985 4.85463 13.8221 4.24 13.705C4.777 15.351 6.318 16.478 8.073 16.511C6.34657 17.8439 4.16554 18.4451 2 18.185C3.88279 19.3724 6.06405 20.0008 8.29 19.997" fill="white" fill-opacity="0.75"/>
</svg>
