<svg preserveAspectRatio="none" width="20" height="20" viewBox="0 0 20 20" fill="none" xmlns="http://www.w3.org/2000/svg">
<path d="M16.6567 3.32333H3.32333C2.40667 3.32333 1.65667 4.07333 1.65667 4.99V14.99C1.65667 15.9067 2.40667 16.6567 3.32333 16.6567H16.6567C17.5733 16.6567 18.3233 15.9067 18.3233 14.99V4.99C18.3233 4.07333 17.5733 3.32333 16.6567 3.32333ZM16.3233 6.865L10.8733 10.2733C10.3317 10.615 9.64833 10.615 9.10667 10.2733L3.65667 6.865C3.57311 6.81809 3.49993 6.75472 3.44157 6.67871C3.38322 6.6027 3.34089 6.51565 3.31715 6.42281C3.29341 6.32997 3.28875 6.23328 3.30346 6.13859C3.31818 6.0439 3.35195 5.95318 3.40273 5.87192C3.45352 5.79066 3.52027 5.72055 3.59894 5.66583C3.67761 5.61111 3.76656 5.57293 3.86041 5.55358C3.95427 5.53424 4.05107 5.53414 4.14496 5.55329C4.23886 5.57244 4.32789 5.61044 4.40667 5.665L9.99 9.15667L15.5733 5.665C15.6521 5.61044 15.7411 5.57244 15.835 5.55329C15.9289 5.53414 16.0257 5.53424 16.1196 5.55358C16.2134 5.57293 16.3024 5.61111 16.3811 5.66583C16.4597 5.72055 16.5265 5.79066 16.5773 5.87192C16.6281 5.95318 16.6618 6.0439 16.6765 6.13859C16.6912 6.23328 16.6866 6.32997 16.6629 6.42281C16.6391 6.51565 16.5968 6.6027 16.5384 6.67871C16.4801 6.75472 16.4069 6.81809 16.3233 6.865Z" fill="#1A1A1A"/>
</svg>
