<svg preserveAspectRatio="none" width="18" height="18" viewBox="0 0 18 18" fill="none" xmlns="http://www.w3.org/2000/svg">
<g clip-path="url(#clip0_251_7617)">
<path d="M0 4C0 1.791 1.791 0 4 0H14C16.209 0 18 1.791 18 4V14C18 16.209 16.209 18 14 18H4C1.791 18 0 16.209 0 14V4ZM4.5 6C4.5 6.552 4.948 7 5.5 7H8V12.5C8 13.052 8.448 13.5 9 13.5C9.552 13.5 10 13.052 10 12.5V7H12.5C13.052 7 13.5 6.552 13.5 6C13.5 5.448 13.052 5 12.5 5H5.5C4.948 5 4.5 5.448 4.5 6Z" fill="#888888"/>
</g>
<defs>
<clipPath id="clip0_251_7617">
<rect width="18" height="18" fill="white"/>
</clipPath>
</defs>
</svg>
