<svg preserveAspectRatio="none" width="18" height="18" viewBox="0 0 18 18" fill="none" xmlns="http://www.w3.org/2000/svg">
<g clip-path="url(#clip0_251_7615)">
<path d="M10.5 18C9.948 18 9.5 17.552 9.5 17V10.5C9.5 9.948 9.948 9.5 10.5 9.5L17 9.5C17.552 9.5 18 9.948 18 10.5V14C18 16.209 16.209 18 14 18H10.5ZM10.5 8.5C9.948 8.5 9.5 8.052 9.5 7.5L9.5 1C9.5 0.448 9.948 0 10.5 0H14C16.209 0 18 1.791 18 4V7.5C18 8.052 17.552 8.5 17 8.5L10.5 8.5ZM4 18C1.791 18 0 16.209 0 14L0 4C0 1.791 1.791 0 4 0H7.5C8.052 0 8.5 0.448 8.5 1L8.5 17C8.5 17.552 8.052 18 7.5 18H4Z" fill="#888888"/>
</g>
<defs>
<clipPath id="clip0_251_7615">
<rect width="18" height="18" fill="white"/>
</clipPath>
</defs>
</svg>
