<svg preserveAspectRatio="none" width="18" height="18" viewBox="0 0 18 18" fill="none" xmlns="http://www.w3.org/2000/svg">
<g clip-path="url(#clip0_251_7619)">
<path d="M0 4C0 1.791 1.791 0 4 0H14C16.209 0 18 1.791 18 4V14C18 16.209 16.209 18 14 18H4C1.791 18 0 16.209 0 14V4ZM4.5 5.75C4.5 6.993 6.515 8 9 8C11.485 8 13.5 6.993 13.5 5.75C13.5 4.507 11.485 3.5 9 3.5C6.515 3.5 4.5 4.507 4.5 5.75ZM13.5 7.1C13.5 8.343 11.485 9.35 9 9.35C6.515 9.35 4.5 8.343 4.5 7.1C4.5 7.1 4.5 8.279 4.5 8.9C4.5 10.143 6.515 11.15 9 11.15C11.485 11.15 13.5 10.143 13.5 8.9C13.5 8.279 13.5 7.1 13.5 7.1ZM13.5 10.25C13.5 11.493 11.485 12.5 9 12.5C6.515 12.5 4.5 11.493 4.5 10.25C4.5 10.25 4.5 11.429 4.5 12.05C4.5 13.293 6.515 14.3 9 14.3C11.485 14.3 13.5 13.293 13.5 12.05C13.5 11.429 13.5 10.25 13.5 10.25Z" fill="#888888"/>
</g>
<defs>
<clipPath id="clip0_251_7619">
<rect width="18" height="18" fill="white"/>
</clipPath>
</defs>
</svg>
