<svg preserveAspectRatio="none" width="21" height="21" viewBox="0 0 21 21" fill="none" xmlns="http://www.w3.org/2000/svg">
<path d="M8.49166 13.1833L11.725 9.95L8.49166 6.71667C8.4144 6.63958 8.3531 6.54801 8.31128 6.44719C8.26945 6.34638 8.24792 6.23831 8.24792 6.12917C8.24792 6.02002 8.26945 5.91195 8.31128 5.81114C8.3531 5.71033 8.4144 5.61876 8.49166 5.54167C8.81666 5.21667 9.34166 5.21667 9.66666 5.54167L13.4917 9.36667C13.8167 9.69167 13.8167 10.2167 13.4917 10.5417L9.66666 14.3667C9.34166 14.6917 8.81666 14.6917 8.49166 14.3667C8.175 14.0417 8.16666 13.5083 8.49166 13.1833Z" fill="white"/>
</svg>
