<svg preserveAspectRatio="none" width="20" height="20" viewBox="0 0 20 20" fill="none" xmlns="http://www.w3.org/2000/svg">
<path d="M13.7867 10.745L13.4075 11.1225C13.4075 11.1225 12.505 12.0192 10.0425 9.57083C7.58 7.1225 8.4825 6.22583 8.4825 6.22583L8.72083 5.9875C9.31 5.4025 9.36583 4.4625 8.85167 3.77583L7.80167 2.37333C7.165 1.52333 5.93583 1.41083 5.20667 2.13583L3.89833 3.43583C3.5375 3.79583 3.29583 4.26083 3.325 4.7775C3.4 6.1 3.99833 8.94417 7.335 12.2625C10.8742 15.7808 14.195 15.9208 15.5525 15.7942C15.9825 15.7542 16.3558 15.5358 16.6567 15.2358L17.84 14.0592C18.64 13.265 18.415 11.9025 17.3917 11.3467L15.8 10.4808C15.1283 10.1167 14.3117 10.2233 13.7867 10.745Z" fill="#1A1A1A"/>
</svg>
