<svg preserveAspectRatio="none" width="18" height="18" viewBox="0 0 18 18" fill="none" xmlns="http://www.w3.org/2000/svg">
<g clip-path="url(#clip0_251_7803)">
<path d="M17.0192 4.74078L17.0389 4.87859C16.8355 4.15672 16.2875 3.60219 15.5919 3.39875L15.5787 3.39547C14.2695 3.04109 8.99984 3.04109 8.99984 3.04109C8.99984 3.04109 3.74 3.03453 2.41766 3.39547C1.70891 3.60219 1.15766 4.15672 0.960782 4.86219L0.957501 4.87531C0.468594 7.43141 0.465313 10.5027 0.980469 13.2392L0.957501 13.1014C1.16094 13.8233 1.70891 14.3778 2.40453 14.5813L2.41766 14.5845C3.72688 14.9422 8.99656 14.9422 8.99656 14.9422C8.99656 14.9422 14.2531 14.9422 15.5755 14.5845C16.2875 14.3778 16.8355 13.8233 17.0356 13.1178L17.0389 13.1047C17.262 11.9169 17.39 10.5486 17.39 9.15078C17.39 9.09828 17.39 9.04906 17.39 8.99656C17.39 8.94734 17.39 8.89156 17.39 8.83578C17.39 7.43469 17.262 6.06641 17.0192 4.74078ZM7.31656 11.5461V6.44047L11.7036 8.99656L7.31656 11.5461Z" fill="black"/>
</g>
<defs>
<clipPath id="clip0_251_7803">
<rect width="16.8" height="16.8" fill="white" transform="translate(0.59 0.59)"/>
</clipPath>
</defs>
</svg>
