<svg preserveAspectRatio="none" width="16" height="16" viewBox="0 0 16 16" fill="none" xmlns="http://www.w3.org/2000/svg">
<path d="M14.25 8C14.25 8.19891 14.171 8.38968 14.0303 8.53033C13.8897 8.67098 13.6989 8.75 13.5 8.75H4.3125L7.5325 11.9694C7.6734 12.1103 7.75255 12.3014 7.75255 12.5006C7.75255 12.6999 7.6734 12.891 7.5325 13.0319C7.3916 13.1728 7.20051 13.2519 7.00125 13.2519C6.80199 13.2519 6.6109 13.1728 6.47 13.0319L1.97 8.53187C1.90008 8.4622 1.8446 8.3794 1.80675 8.28824C1.76889 8.19707 1.74941 8.09934 1.74941 8.00062C1.74941 7.90191 1.76889 7.80417 1.80675 7.71301C1.8446 7.62185 1.90008 7.53905 1.97 7.46937L6.47 2.96937C6.53976 2.89961 6.62259 2.84427 6.71374 2.80651C6.80489 2.76876 6.90259 2.74932 7.00125 2.74932C7.09991 2.74932 7.19761 2.76876 7.28876 2.80651C7.37991 2.84427 7.46273 2.89961 7.5325 2.96937C7.60226 3.03914 7.65761 3.12196 7.69536 3.21311C7.73312 3.30427 7.75255 3.40196 7.75255 3.50062C7.75255 3.59929 7.73312 3.69698 7.69536 3.78814C7.65761 3.87929 7.60226 3.96211 7.5325 4.03188L4.3125 7.25H13.5C13.6989 7.25 13.8897 7.32902 14.0303 7.46967C14.171 7.61032 14.25 7.80109 14.25 8Z" fill="#999999"/>
</svg>
