<svg preserveAspectRatio="none" width="18" height="18" viewBox="0 0 18 18" fill="none" xmlns="http://www.w3.org/2000/svg">
<g clip-path="url(#clip0_251_7805)">
<path d="M16.3497 4.80312C15.3915 4.80312 14.5056 4.48484 13.7968 3.95C12.9831 3.3364 12.3957 2.43406 12.189 1.39719C12.1365 1.14125 12.1103 0.875466 12.107 0.603123H9.36715V8.08765L9.36387 12.1859C9.36387 13.2819 8.64856 14.2105 7.6609 14.5386C7.37215 14.6337 7.06372 14.6797 6.74215 14.66C6.32872 14.637 5.94481 14.5123 5.60684 14.3122C4.89153 13.8856 4.40919 13.1112 4.39606 12.222C4.37637 10.8373 5.49528 9.70531 6.87997 9.70531C7.15231 9.70531 7.41481 9.75125 7.6609 9.83V7.78578V7.05406C7.40169 7.01469 7.13919 6.995 6.87012 6.995C5.35419 6.995 3.93669 7.625 2.92278 8.76031C2.15825 9.61672 1.69887 10.7127 1.62669 11.8611C1.53481 13.3672 2.08606 14.8011 3.15575 15.8577C3.31325 16.0119 3.47731 16.1562 3.65122 16.2908C4.56997 16.9962 5.68887 17.3802 6.87012 17.3802C7.1359 17.3802 7.40169 17.3605 7.6609 17.3211C8.7634 17.157 9.78059 16.6517 10.5845 15.8577C11.5722 14.8831 12.1168 13.587 12.1234 12.2089L12.1103 6.08609C12.5828 6.45031 13.0947 6.7489 13.6492 6.98187C14.5089 7.34609 15.4211 7.52656 16.3562 7.52656V5.53812V4.79984C16.3595 4.80312 16.3497 4.80312 16.3497 4.80312Z" fill="black"/>
</g>
<defs>
<clipPath id="clip0_251_7805">
<rect width="16.8" height="16.8" fill="white" transform="translate(0.59 0.59)"/>
</clipPath>
</defs>
</svg>
