<svg preserveAspectRatio="none" width="16" height="16" viewBox="0 0 16 16" fill="none" xmlns="http://www.w3.org/2000/svg">
<path d="M15.25 3.5V6.5C15.25 6.69891 15.171 6.88968 15.0303 7.03033C14.8897 7.17098 14.6989 7.25 14.5 7.25H11.5C11.3011 7.25 11.1103 7.17098 10.9697 7.03033C10.829 6.88968 10.75 6.69891 10.75 6.5C10.75 6.30109 10.829 6.11032 10.9697 5.96967C11.1103 5.82902 11.3011 5.75 11.5 5.75H12.5688L11.3813 4.66375C11.3731 4.65625 11.365 4.64875 11.3575 4.64062C10.8069 4.09035 10.1295 3.68383 9.38485 3.45684C8.64024 3.22984 7.85124 3.18934 7.0873 3.33888C6.32335 3.48841 5.60786 3.82342 5.00378 4.31441C4.39971 4.8054 3.92557 5.43734 3.62307 6.1546C3.32057 6.87187 3.19899 7.6525 3.26903 8.42778C3.33907 9.20307 3.59858 9.94927 4.02473 10.6007C4.45088 11.2522 5.0306 11.7889 5.71289 12.1637C6.39518 12.5384 7.15912 12.7398 7.9375 12.75H8C9.21245 12.7529 10.3795 12.2892 11.2594 11.455C11.404 11.3183 11.597 11.2447 11.7959 11.2503C11.9948 11.256 12.1833 11.3404 12.32 11.485C12.4567 11.6296 12.5303 11.8226 12.5247 12.0215C12.519 12.2204 12.4346 12.409 12.29 12.5456C11.1318 13.6434 9.59577 14.2536 8 14.25H7.91437C6.89128 14.2356 5.88737 13.9702 4.9908 13.4772C4.09423 12.9841 3.33242 12.2785 2.77226 11.4222C2.2121 10.566 1.87073 9.58532 1.77812 8.56633C1.6855 7.54733 1.84448 6.52118 2.2411 5.57798C2.63771 4.63478 3.25983 3.80337 4.05282 3.15677C4.84582 2.51017 5.78543 2.06815 6.78916 1.86952C7.7929 1.67089 8.83004 1.72172 9.80954 2.01756C10.789 2.3134 11.6809 2.8452 12.4069 3.56625L13.75 4.795V3.5C13.75 3.30109 13.829 3.11032 13.9697 2.96967C14.1103 2.82902 14.3011 2.75 14.5 2.75C14.6989 2.75 14.8897 2.82902 15.0303 2.96967C15.171 3.11032 15.25 3.30109 15.25 3.5Z" fill="#999999"/>
</svg>
