<svg preserveAspectRatio="none" width="18" height="18" viewBox="0 0 18 18" fill="none" xmlns="http://www.w3.org/2000/svg">
<g clip-path="url(#clip0_251_7798)">
<path d="M17.3309 5.5414C17.2916 4.6489 17.1472 4.03859 16.9405 3.50703C16.7272 2.94265 16.3991 2.44062 15.9725 2.02062C15.5525 1.59406 15.0439 1.26265 14.4894 1.05593C13.9545 0.849215 13.3475 0.70484 12.455 0.665465C11.5559 0.622808 11.2737 0.612965 8.99656 0.612965C6.71937 0.612965 6.43062 0.619527 5.53812 0.658902C4.64562 0.698277 4.03531 0.842652 3.50375 1.04937C2.93937 1.26265 2.43734 1.59078 2.01734 2.01734C1.59078 2.43734 1.25937 2.94593 1.04937 3.50375C0.842653 4.03859 0.698278 4.64562 0.658903 5.53812C0.616247 6.43718 0.606403 6.71937 0.606403 8.99656C0.606403 11.2737 0.616247 11.5592 0.655622 12.4517C0.694997 13.3442 0.839372 13.9545 1.04609 14.4861C1.25937 15.0505 1.59078 15.5525 2.01406 15.9725C2.43406 16.3991 2.94265 16.7305 3.49718 16.9372C4.03203 17.1439 4.63906 17.2883 5.53156 17.3277C6.42406 17.367 6.70953 17.3769 8.98672 17.3769C11.2639 17.3769 11.5494 17.367 12.4419 17.3277C13.3344 17.2883 13.9447 17.1439 14.4762 16.9372C15.6017 16.5008 16.4942 15.6116 16.9306 14.4828C17.1373 13.948 17.2817 13.3409 17.3211 12.4484C17.3605 11.5527 17.3703 11.2705 17.3703 8.99328C17.3703 6.71609 17.367 6.4339 17.3309 5.5414ZM15.8183 12.3861C15.7822 13.2064 15.6444 13.6461 15.5295 13.9414C15.2473 14.6731 14.6666 15.2506 13.9381 15.5328C13.6428 15.6477 13.1966 15.7855 12.3828 15.8216C11.4969 15.8609 11.2344 15.8708 8.99656 15.8708C6.75875 15.8708 6.48968 15.8609 5.61031 15.8216C4.79 15.7855 4.35031 15.6477 4.055 15.5328C3.69078 15.3983 3.35937 15.185 3.09359 14.9061C2.81468 14.6337 2.6014 14.3056 2.46687 13.9447C2.35203 13.6494 2.21422 13.2031 2.17812 12.3894C2.13875 11.5034 2.1289 11.2409 2.1289 9.00312C2.1289 6.76531 2.13875 6.49625 2.17812 5.61687C2.21422 4.79656 2.35203 4.35687 2.46687 4.06156C2.6014 3.69734 2.81468 3.36593 3.09687 3.09687C3.36922 2.81796 3.69734 2.60468 4.05828 2.47015C4.35359 2.35531 4.79984 2.2175 5.61359 2.1814C6.49953 2.14203 6.76203 2.13218 8.99984 2.13218C11.2409 2.13218 11.5067 2.14203 12.3861 2.1814C13.2064 2.2175 13.6461 2.35531 13.9414 2.47015C14.3056 2.60468 14.637 2.81796 14.9028 3.09687C15.1817 3.36921 15.395 3.69734 15.5295 4.06156C15.6444 4.35687 15.7822 4.80312 15.8183 5.61687C15.8577 6.50281 15.8675 6.76531 15.8675 9.00312C15.8675 11.2409 15.8577 11.5034 15.8183 12.3861Z" fill="black"/>
<path d="M8.99328 4.68828C6.61437 4.68828 4.685 6.61766 4.685 8.99656C4.685 11.3755 6.61437 13.3048 8.99328 13.3048C11.3722 13.3048 13.3016 11.3755 13.3016 8.99656C13.3016 6.61766 11.3722 4.68828 8.99328 4.68828ZM8.99328 11.7889C7.45109 11.7889 6.19766 10.5388 6.19766 8.99656C6.19766 7.45438 7.44781 6.20094 8.99328 6.20094C10.5355 6.20094 11.7889 7.4511 11.7889 8.99656C11.7889 10.5388 10.5355 11.7889 8.99328 11.7889Z" fill="black"/>
<path d="M14.4759 4.51747C14.4759 5.0719 14.0264 5.52135 13.472 5.52135C12.9176 5.52135 12.4681 5.0719 12.4681 4.51747C12.4681 3.96304 12.9176 3.51359 13.472 3.51359C14.0264 3.51359 14.4759 3.96304 14.4759 4.51747Z" fill="black"/>
</g>
<defs>
<clipPath id="clip0_251_7798">
<rect width="16.8" height="16.8" fill="white" transform="translate(0.59 0.59)"/>
</clipPath>
</defs>
</svg>
