<svg preserveAspectRatio="none" width="21" height="21" viewBox="0 0 21 21" fill="none" xmlns="http://www.w3.org/2000/svg">
<path d="M18.0383 11.1633L12.4133 16.7883C12.2372 16.9644 11.9983 17.0633 11.7492 17.0633C11.5001 17.0633 11.2613 16.9644 11.0852 16.7883C10.909 16.6122 10.8101 16.3733 10.8101 16.1242C10.8101 15.8751 10.909 15.6363 11.0852 15.4602L15.1094 11.4375H3.625C3.37636 11.4375 3.1379 11.3387 2.96209 11.1629C2.78627 10.9871 2.6875 10.7486 2.6875 10.5C2.6875 10.2514 2.78627 10.0129 2.96209 9.83709C3.1379 9.66127 3.37636 9.5625 3.625 9.5625H15.1094L11.0867 5.5375C10.9106 5.36138 10.8117 5.12251 10.8117 4.87344C10.8117 4.62437 10.9106 4.38549 11.0867 4.20937C11.2628 4.03325 11.5017 3.93431 11.7508 3.93431C11.9999 3.93431 12.2387 4.03325 12.4148 4.20937L18.0398 9.83437C18.1273 9.92159 18.1966 10.0252 18.2438 10.1393C18.2911 10.2534 18.3153 10.3757 18.3152 10.4992C18.315 10.6226 18.2905 10.7449 18.243 10.8588C18.1955 10.9728 18.1259 11.0763 18.0383 11.1633Z" fill="#0099FF"/>
</svg>
