<svg preserveAspectRatio="none" width="21" height="21" viewBox="0 0 21 21" fill="none" xmlns="http://www.w3.org/2000/svg">
<path d="M18.2936 10.5C18.2936 11.2324 18.5483 11.9411 19.0129 12.5068L19.4316 13.0148C19.7794 13.4374 19.8279 14.0306 19.5549 14.5044L18.4958 16.3393C18.2214 16.8131 17.6833 17.0678 17.1439 16.9772L16.4942 16.8696C15.771 16.7488 15.0308 16.884 14.3968 17.2502C13.7629 17.6177 13.2759 18.1926 13.0187 18.8777L12.7877 19.4919C12.5961 20.0038 12.1065 20.3438 11.5592 20.3438H9.44081C8.8935 20.3438 8.40394 20.0038 8.21231 19.4919L7.98131 18.8777C7.72406 18.1926 7.23712 17.6177 6.60319 17.2502C5.96925 16.884 5.229 16.7488 4.50581 16.8696L3.85612 16.9772C3.31669 17.0678 2.77856 16.8131 2.50425 16.3393L1.44506 14.5044C1.17206 14.0306 1.22063 13.4374 1.56844 13.0148L1.98713 12.5068C2.45175 11.9411 2.70637 11.2324 2.70637 10.5C2.70637 9.76762 2.45175 9.05888 1.98713 8.49319L1.56844 7.98525C1.22063 7.56263 1.17206 6.96937 1.44506 6.49556L2.50425 4.66069C2.77856 4.18688 3.31669 3.93225 3.85612 4.02281L4.50581 4.13044C5.229 4.25119 5.96925 4.116 6.60319 3.74981C7.23712 3.38231 7.72406 2.80744 7.98131 2.12231L8.21231 1.50806C8.40394 0.996188 8.8935 0.65625 9.44081 0.65625H11.5592C12.1065 0.65625 12.5961 0.996188 12.7877 1.50806L13.0187 2.12231C13.2759 2.80744 13.7629 3.38231 14.3968 3.74981C15.0308 4.116 15.771 4.25119 16.4942 4.13044L17.1439 4.02281C17.6833 3.93225 18.2214 4.18688 18.4958 4.66069L19.5549 6.49556C19.8279 6.96937 19.7794 7.56263 19.4316 7.98525L19.0129 8.49319C18.5483 9.05888 18.2936 9.76762 18.2936 10.5ZM6.5625 10.5C6.5625 12.6748 8.32519 14.4375 10.5 14.4375C12.6748 14.4375 14.4375 12.6748 14.4375 10.5C14.4375 8.32519 12.6748 6.5625 10.5 6.5625C8.32519 6.5625 6.5625 8.32519 6.5625 10.5Z" fill="white"/>
</svg>
