<svg preserveAspectRatio="none" width="50" height="43" viewBox="0 0 50 43" fill="none" xmlns="http://www.w3.org/2000/svg">
<g clip-path="url(#clip0_251_7758)">
<path d="M49.162 14.576C49.462 13.111 49.241 11.569 48.479 10.286C47.632 8.852 46.213 7.847 44.579 7.524C44.198 7.449 43.811 7.411 43.422 7.411H43.398C40.577 7.411 38.215 9.437 37.649 12.203C37.302 13.853 36.666 15.428 35.769 16.856C35.665 17.021 35.479 17.116 35.284 17.105C35.089 17.093 34.916 16.976 34.833 16.799L28.989 4.503C28.248 2.946 26.913 1.718 25.26 1.232C22.422 0.4 19.502 1.817 18.298 4.35L12.259 17.063C12.103 17.394 11.621 17.387 11.483 17.048V17.042C10.587 14.814 8.426 13.358 6.026 13.364C5.248 13.364 4.485 13.518 3.758 13.819C0.749 15.078 -0.604 18.627 0.65 21.638C1.786 24.359 3.662 26.932 6.091 29.148C6.266 29.309 6.319 29.558 6.215 29.772L4.264 33.882C2.886 36.787 3.994 40.332 6.86 41.778C7.681 42.195 8.589 42.412 9.509 42.412C11.777 42.405 13.841 41.101 14.823 39.056L16.508 35.511C16.617 35.277 16.881 35.157 17.13 35.23C19.132 35.786 21.199 36.074 23.277 36.085C25.566 36.085 27.825 35.739 30.008 35.105C30.259 35.03 30.529 35.149 30.642 35.386L32.308 38.895C33.298 40.977 35.36 42.403 37.664 42.416C38.601 42.419 39.505 42.209 40.348 41.782C43.223 40.332 44.32 36.772 42.938 33.866L40.841 29.454C40.741 29.244 40.79 28.993 40.961 28.835C45.028 25.069 48.024 20.102 49.16 14.58L49.162 14.576ZM12.896 38.134C12.275 39.439 10.959 40.271 9.513 40.272C8.937 40.272 8.369 40.138 7.854 39.879C6.002 38.964 5.308 36.662 6.194 34.795L7.814 31.381C7.882 31.238 8.009 31.133 8.161 31.093C8.313 31.053 8.476 31.082 8.605 31.172C10.325 32.392 12.18 33.41 14.132 34.207C14.269 34.262 14.376 34.371 14.43 34.507C14.484 34.644 14.48 34.797 14.417 34.93L12.896 38.13V38.134ZM23.281 33.943C14.673 33.943 5.567 28.104 2.555 20.65C2.038 19.406 2.228 17.981 3.052 16.917C3.877 15.853 5.209 15.314 6.542 15.505C7.874 15.697 9 16.59 9.492 17.844C11.379 22.51 17.689 26.454 23.277 26.454C24.135 26.454 24.994 26.373 25.841 26.216C26.079 26.172 26.317 26.291 26.426 26.508L29.249 32.447C29.318 32.589 29.32 32.755 29.254 32.899C29.189 33.043 29.063 33.15 28.91 33.192C27.074 33.683 25.182 33.934 23.281 33.939V33.943ZM22.049 23.853L23.345 21.125C23.393 21.023 23.495 20.959 23.607 20.959C23.719 20.959 23.821 21.023 23.868 21.125L25.136 23.789C25.175 23.872 25.173 23.969 25.131 24.05C25.088 24.131 25.009 24.188 24.919 24.203C24.377 24.279 23.831 24.318 23.284 24.32C22.953 24.32 22.619 24.302 22.28 24.271C22.081 24.252 21.967 24.035 22.051 23.856L22.049 23.853ZM39.36 39.878C38.461 40.325 37.42 40.391 36.472 40.063C35.524 39.735 34.747 39.039 34.316 38.132L24.113 16.664C24.02 16.469 23.823 16.344 23.606 16.344C23.39 16.344 23.192 16.469 23.099 16.664L19.937 23.319C19.822 23.563 19.541 23.683 19.285 23.596C17.134 22.856 15.091 21.595 13.573 20.077C13.416 19.917 13.376 19.676 13.473 19.474C14.396 17.537 19.054 7.732 20.31 5.088C20.553 4.579 20.909 4.129 21.378 3.819C23.534 2.405 26.051 3.297 26.983 5.265L41.015 34.795C41.902 36.662 41.207 38.96 39.355 39.879H39.36V39.878ZM36.41 20.119C36.325 19.937 36.35 19.722 36.475 19.564C38.078 17.505 39.244 15.114 39.754 12.559C39.956 11.556 40.559 10.68 41.424 10.133C42.288 9.586 43.338 9.416 44.331 9.662C46.324 10.162 47.471 12.225 47.047 14.234C46.061 18.944 43.608 23.212 40.264 26.561C40.142 26.686 39.966 26.743 39.794 26.715C39.622 26.686 39.474 26.576 39.398 26.418L36.406 20.119H36.41Z" fill="white"/>
</g>
<defs>
<clipPath id="clip0_251_7758">
<rect width="50" height="43" fill="white"/>
</clipPath>
</defs>
</svg>
