<svg preserveAspectRatio="none" width="130" height="26" viewBox="0 0 130 26" fill="none" xmlns="http://www.w3.org/2000/svg">
<g clip-path="url(#clip0_251_7772)">
<path d="M101.721 9.076H98.644V20.064H101.721V9.076ZM101.721 5.455H98.644V7.885H101.721V5.455ZM34.588 5.455H31.371V20.064H41.196V17.263H34.588V5.455ZM47.554 8.162C44.13 8.162 41.419 10.846 41.419 14.228C41.419 17.611 44.13 20.302 47.554 20.302C50.979 20.302 53.713 17.619 53.713 14.234C53.713 10.849 51 8.162 47.554 8.162ZM47.554 17.402C45.831 17.402 44.544 16.073 44.544 14.22C44.544 12.367 45.831 11.047 47.554 11.047C49.278 11.047 50.565 12.401 50.565 14.22C50.565 16.039 49.278 17.402 47.554 17.402ZM66.623 17.59C66.071 17.59 65.589 17.263 65.589 16.26V11.594H68.524V9.076H65.589V5.909H62.51V9.076H58.468V5.909H55.39V9.076H53.713V11.594H55.39V16.307C55.39 18.943 56.631 20.297 58.927 20.297C59.964 20.299 60.979 19.992 61.846 19.413L60.975 17.104C60.539 17.403 60.03 17.573 59.504 17.593C58.952 17.593 58.469 17.266 58.469 16.264V11.594H62.512V16.307C62.512 18.943 63.752 20.297 66.05 20.297C67.087 20.299 68.102 19.992 68.968 19.413L68.098 17.104C67.661 17.403 67.15 17.571 66.623 17.59ZM86.085 13.407C85.615 10.127 82.8 7.806 79.705 8.265C78.134 8.482 76.715 9.334 75.769 10.627C74.823 11.92 74.43 13.546 74.677 15.137C75.222 18.948 78.448 20.713 81.767 20.221C83.27 20.007 84.678 19.348 85.815 18.327L84.359 16.278C83.528 17.007 82.508 17.478 81.421 17.633C79.92 17.853 78.515 17.279 77.922 15.744L86.176 14.524C86.166 14.15 86.135 13.777 86.085 13.407ZM77.582 13.695C77.668 12.197 78.668 11.058 79.986 10.866C81.371 10.646 82.701 11.508 83.09 12.876L77.582 13.695ZM119.502 13.407C119.032 10.127 116.215 7.806 113.123 8.265C111.551 8.482 110.132 9.333 109.186 10.626C108.24 11.92 107.846 13.546 108.094 15.137C108.639 18.948 111.864 20.713 115.184 20.221C116.686 20.007 118.093 19.348 119.23 18.327L117.777 16.278C116.945 17.007 115.924 17.478 114.836 17.633C113.335 17.853 111.93 17.279 111.338 15.744L119.592 14.524C119.581 14.15 119.551 13.777 119.502 13.407ZM110.998 13.695C111.085 12.197 112.083 11.058 113.403 10.866C114.787 10.646 116.115 11.508 116.5 12.876L110.998 13.695ZM106.777 5.455H103.698V20.062H106.777V5.455ZM125.876 12.759C124.819 12.526 123.855 12.316 123.855 11.663C123.855 11.174 124.521 10.846 125.233 10.846C126.346 10.864 127.439 11.144 128.426 11.663L129.461 9.329C128.176 8.53 126.692 8.125 125.186 8.162C123.028 8.162 120.729 9.422 120.729 11.803C120.729 14.043 122.59 14.809 124.866 15.419C125.853 15.7 126.843 15.862 126.843 16.563C126.843 17.263 125.671 17.542 124.957 17.542C123.657 17.568 122.389 17.13 121.374 16.304L120.27 18.711C120.914 19.317 122.498 20.302 124.957 20.302C127.095 20.302 129.966 19.346 129.966 16.474C129.966 14.089 127.837 13.23 125.876 12.759ZM73.284 9.076H70.206V20.064H73.284V9.076ZM73.284 5.455H70.206V7.885H73.284V5.455ZM87.396 20.064H90.607V14.094H96.051V11.323H90.607V8.251H97.221V5.455H87.396V20.064ZM25.357 6.516V19.236C25.357 22.835 22.485 25.752 18.942 25.752H6.416C2.873 25.752 0 22.835 0 19.236V6.516C0 2.917 2.873 0 6.416 0H18.942C22.485 0 25.357 2.917 25.357 6.516ZM19.272 5.768C14.907 5.768 13.29 8.933 11.989 11.475L11.14 13.103C9.762 15.799 8.733 17.438 6.082 17.438C5.39 17.438 4.829 18.008 4.828 18.711C4.829 19.414 5.39 19.983 6.082 19.984C10.449 19.984 12.066 16.819 13.366 14.276L14.214 12.649C15.593 9.953 16.623 8.314 19.272 8.314C19.965 8.314 20.526 7.744 20.528 7.041C20.526 6.337 19.964 5.768 19.272 5.768Z" fill="white"/>
</g>
<defs>
<clipPath id="clip0_251_7772">
<rect width="130" height="26" fill="white"/>
</clipPath>
</defs>
</svg>
