<svg preserveAspectRatio="none" width="21" height="21" viewBox="0 0 21 21" fill="none" xmlns="http://www.w3.org/2000/svg">
<g clip-path="url(#clip0_251_7783)">
<path d="M10.5 0.65625C15.9364 0.65625 20.3438 5.06362 20.3438 10.5C20.3438 15.9364 15.9364 20.3438 10.5 20.3438C5.06362 20.3438 0.65625 15.9364 0.65625 10.5C0.65625 5.06362 5.06362 0.65625 10.5 0.65625ZM6.96937 16.7974C6.42862 15.4088 6.06375 13.6946 5.94694 11.8125H3.40069C3.79444 13.9545 5.13319 15.7658 6.96937 16.7974ZM6.96937 4.20262C5.13319 5.23425 3.79444 7.0455 3.40069 9.1875H5.94694C6.06375 7.30537 6.42862 5.59125 6.96937 4.20262ZM14.0306 4.20262C14.5714 5.59125 14.9362 7.30537 15.0531 9.1875H17.5993C17.2056 7.0455 15.8668 5.23425 14.0306 4.20262ZM14.0306 16.7974C15.8668 15.7658 17.2056 13.9545 17.5993 11.8125H15.0531C14.9362 13.6946 14.5714 15.4088 14.0306 16.7974ZM10.5 17.7188C11.4647 17.7188 12.2679 15.1725 12.4359 11.8125H8.56406C8.73206 15.1725 9.53531 17.7188 10.5 17.7188ZM10.5 3.28125C9.53531 3.28125 8.73206 5.8275 8.56406 9.1875H12.4359C12.2679 5.8275 11.4647 3.28125 10.5 3.28125Z" fill="white"/>
</g>
<defs>
<clipPath id="clip0_251_7783">
<rect width="21" height="21" fill="white"/>
</clipPath>
</defs>
</svg>
