<svg preserveAspectRatio="none" width="120" height="35" viewBox="0 0 120 35" fill="none" xmlns="http://www.w3.org/2000/svg">
<g clip-path="url(#clip0_251_7766)">
<path d="M118.074 19.022C118.19 18.883 118.365 18.805 118.547 18.812C118.729 18.818 118.898 18.908 119.004 19.054H119.002L119.877 20.242C120.043 20.47 120.041 20.786 119.868 21.008C118.35 22.963 115.69 24.847 112.48 25.028C109.946 25.172 107.856 24.218 106.719 22.416C106.618 22.249 106.439 22.144 106.243 22.136C106.047 22.128 105.859 22.218 105.745 22.376C104.395 24.175 102.762 25.582 101.061 25.679C98.031 25.851 97.175 23.832 97.924 19.381C97.999 18.938 97.608 18.563 97.187 18.674C96.545 18.847 95.878 18.908 95.215 18.855C94.93 18.829 94.667 19.006 94.584 19.278C93.463 22.936 90.794 26.339 87.34 26.537C85.134 26.662 81.84 25.407 82.17 20.164C82.197 19.738 81.812 19.402 81.415 19.522C80.705 19.741 79.961 19.823 79.22 19.765C78.936 19.74 78.673 19.917 78.591 20.189C77.47 23.847 74.801 27.25 71.347 27.447C69.141 27.572 65.847 26.317 66.177 21.075C66.204 20.648 65.819 20.312 65.422 20.432C64.73 20.641 63.986 20.74 63.227 20.675C62.943 20.65 62.68 20.827 62.599 21.099C61.476 24.757 58.808 28.16 55.354 28.357C53.785 28.447 51.663 27.836 50.689 25.589C50.609 25.39 50.426 25.249 50.211 25.224C49.996 25.198 49.785 25.292 49.66 25.467C48.295 27.316 46.634 28.775 44.899 28.874C43.121 28.975 42.148 28.266 41.725 27.003C41.661 26.798 41.489 26.646 41.277 26.604C41.066 26.563 40.848 26.64 40.71 26.804C39.497 28.221 38.114 29.26 36.715 29.339C34.559 29.463 33.317 27.875 33.215 25.952C33.097 23.708 34.074 21.081 35.165 18.213C35.316 17.814 35.042 17.383 34.628 17.365C33.949 17.339 33.273 17.267 32.604 17.148C32.3 17.089 32.004 17.277 31.917 17.585C30.627 22.16 28.651 26.646 26.984 29.297C26.797 29.594 26.412 29.673 26.132 29.469L24.859 28.538C24.596 28.34 24.528 27.975 24.702 27.696C27.111 23.863 29.25 17.862 29.987 13.423C30.033 13.14 30.266 12.93 30.545 12.913L32.238 12.816C32.626 12.794 32.932 13.153 32.861 13.549L32.854 13.591C32.791 13.943 33.027 14.274 33.369 14.32C34.888 14.528 37.157 14.553 38.697 14.493C39.13 14.477 39.436 14.921 39.278 15.338C38.043 18.603 36.388 23.126 36.483 24.916C36.526 25.725 36.885 26.167 37.518 26.131C38.727 26.063 40.588 23.647 41.998 20.957C42.024 20.909 42.043 20.857 42.054 20.803C42.53 18.697 43.234 16.348 43.947 13.975L43.992 13.828C44.061 13.584 44.277 13.409 44.531 13.392L46.559 13.277C46.978 13.254 47.291 13.672 47.164 14.084L46.852 15.099C45.068 20.909 43.57 25.787 45.588 25.673C46.907 25.598 48.776 23.375 50.384 20.211C50.41 20.159 50.429 20.103 50.44 20.045C50.521 19.632 50.619 19.199 50.739 18.747C51.677 15.028 52.74 11.344 53.804 7.655C54.133 6.517 54.462 5.377 54.786 4.237C54.859 3.985 55.076 3.808 55.329 3.792L57.411 3.675C57.834 3.651 58.147 4.073 58.014 4.489C57.16 7.154 56.318 9.822 55.488 12.494C55.315 13.054 55.918 13.519 56.395 13.196C57.216 12.639 58.166 12.269 59.085 12.217C61.428 12.084 63.023 13.998 63.175 16.882C63.184 17.034 63.193 17.198 63.197 17.365C63.206 17.685 63.447 17.943 63.755 17.969C64.857 18.067 65.985 17.741 66.855 16.97C66.945 16.891 67.005 16.783 67.035 16.667C67.898 13.339 68.851 10.034 69.804 6.726C70.131 5.594 70.458 4.461 70.781 3.326C70.853 3.073 71.07 2.895 71.324 2.881L73.405 2.763C73.828 2.739 74.141 3.162 74.009 3.578C73.154 6.242 72.312 8.91 71.482 11.583C71.309 12.142 71.913 12.607 72.389 12.285C73.21 11.727 74.16 11.357 75.079 11.305C77.422 11.172 79.017 13.087 79.17 15.971C79.179 16.122 79.187 16.287 79.192 16.454C79.199 16.773 79.441 17.032 79.749 17.058C80.851 17.155 81.979 16.83 82.849 16.058C82.939 15.979 82.999 15.871 83.03 15.755C83.893 12.427 84.845 9.123 85.799 5.815C86.126 4.682 86.452 3.549 86.775 2.414C86.848 2.162 87.064 1.984 87.318 1.969L89.399 1.851C89.823 1.827 90.136 2.25 90.003 2.666C89.149 5.331 88.307 7.999 87.477 10.671C87.304 11.23 87.907 11.696 88.383 11.373C89.204 10.815 90.154 10.445 91.074 10.393C93.417 10.26 95.011 12.175 95.165 15.059C95.173 15.212 95.182 15.375 95.186 15.542C95.195 15.86 95.434 16.12 95.742 16.147C96.808 16.241 97.9 15.939 98.757 15.221C98.852 15.142 98.918 15.031 98.95 14.908C99.933 11.145 101.377 6.216 102.769 1.498C102.838 1.253 103.054 1.078 103.31 1.061L105.372 0.943C105.791 0.919 106.104 1.334 105.978 1.747C104.063 8.064 102.501 13.591 101.64 16.851C100.495 21.273 100.45 22.549 101.752 22.474C102.845 22.412 104.317 20.872 105.705 18.544C105.76 18.453 105.79 18.349 105.794 18.243C105.976 13.583 108.852 9.344 113.127 9.101C115.991 8.939 117.56 11.087 117.673 13.201C117.886 17.237 113.87 19.817 109.977 19.578C109.524 19.55 109.194 20.033 109.394 20.454C109.937 21.609 111.082 22.253 113.037 22.141C114.896 22.037 116.846 20.444 118.074 19.022ZM53.724 20.154C52.801 23.832 53.922 25.272 55.373 25.189C57.754 25.053 60.058 20.719 59.881 17.374C59.803 15.913 58.942 15.153 57.938 15.209C56.265 15.305 54.463 17.219 53.724 20.154ZM69.718 19.244C68.795 22.921 69.916 24.362 71.367 24.279H71.365C73.747 24.143 76.052 19.809 75.875 16.464C75.798 15.003 74.936 14.243 73.932 14.299C72.259 14.395 70.458 16.309 69.718 19.244ZM85.713 18.334C84.789 22.011 85.911 23.452 87.361 23.369C89.741 23.234 92.047 18.899 91.869 15.554C91.792 14.093 90.931 13.332 89.926 13.39C88.253 13.485 86.452 15.399 85.713 18.334ZM114.631 13.526C114.617 12.563 114.021 11.865 113.054 11.919C111.154 12.028 109.666 14.071 109.193 16.549C109.118 16.943 109.408 17.31 109.796 17.301C112.25 17.24 114.71 15.632 114.631 13.527V13.526ZM25.558 15.315C25.31 7.848 20.421 2.92 13.197 3.177C10.095 3.317 6.546 4.485 3.876 6.574C3.625 6.771 3.559 7.132 3.73 7.407L4.863 9.239C4.951 9.387 5.101 9.488 5.272 9.516C5.443 9.544 5.617 9.496 5.749 9.384C7.781 7.706 10.555 6.607 13.224 6.49C18.175 6.286 21.813 9.435 22.025 15.516C22.29 22.597 17.498 30.697 9.798 31.136C9.53 31.15 9.249 31.157 8.969 31.157C8.576 31.157 8.287 30.776 8.385 30.382C9.914 24.253 11.576 18.157 13.372 12.099C13.494 11.686 13.183 11.274 12.765 11.298L10.513 11.426C10.257 11.444 10.04 11.62 9.971 11.866C8.272 17.706 6.572 24.039 5.042 29.982C4.954 30.325 4.603 30.523 4.276 30.412C3.478 30.142 2.75 29.834 2.129 29.475C1.832 29.302 1.455 29.424 1.302 29.741L0.334 31.748C0.191 32.045 0.297 32.409 0.578 32.569C2.771 33.804 6.099 34.51 9.445 34.32C20.456 33.695 25.85 23.594 25.558 15.319V15.317V15.315ZM47.196 6.141C45.856 6.217 44.668 7.712 44.752 9.288C44.807 10.327 45.478 11.02 46.521 10.962C47.86 10.886 49.081 9.312 49.001 7.812C48.947 6.774 48.163 6.086 47.196 6.141Z" fill="white"/>
</g>
<defs>
<clipPath id="clip0_251_7766">
<rect width="120" height="35" fill="white"/>
</clipPath>
</defs>
</svg>
