<svg preserveAspectRatio="none" width="129" height="29" viewBox="0 0 129 29" fill="none" xmlns="http://www.w3.org/2000/svg">
<path d="M16.397 5.35643e-07H12.504C5.6 0.00800054 0.007 5.604 0 12.508C0.008 19.412 5.601 25.006 12.504 25.014H16.412C23.315 25.007 28.91 19.413 28.918 12.508C28.912 5.597 23.307 -0.00199946 16.397 5.35643e-07ZM1.547 12.508C1.547 6.462 6.449 1.559 12.495 1.559C13.106 1.559 13.717 1.61 14.32 1.71C19.595 2.583 23.458 7.155 23.439 12.503C23.433 15.935 20.955 18.864 17.572 19.439C19.786 17.822 21.094 15.244 21.093 12.503C21.1 8.579 18.445 5.151 14.646 4.175C13.943 3.994 13.22 3.902 12.495 3.903C7.755 3.918 3.919 7.762 3.914 12.503C3.903 16.798 6.101 20.797 9.734 23.088C4.925 21.824 1.568 17.482 1.556 12.508H1.547ZM14.444 5.753C17.455 6.62 19.527 9.376 19.525 12.508C19.526 15.64 17.454 18.395 14.444 19.261C11.435 18.395 9.363 15.64 9.364 12.508C9.362 9.376 11.434 6.62 14.444 5.753ZM16.397 23.452H16.353C15.758 23.448 15.164 23.398 14.578 23.301C9.441 22.449 5.625 18.081 5.471 12.875V12.508C5.474 9.075 7.953 6.145 11.338 5.572C9.123 7.188 7.813 9.766 7.814 12.508C7.808 16.431 10.462 19.858 14.261 20.833C14.963 21.016 15.686 21.107 16.412 21.105C21.157 21.1 25.004 17.255 25.01 12.508C25.023 8.213 22.824 4.213 19.19 1.923C23.999 3.188 27.352 7.535 27.353 12.508C27.352 15.413 26.196 18.198 24.142 20.25C22.087 22.302 19.301 23.454 16.397 23.452Z" fill="white"/>
<path d="M53.952 22.833H36.144V20.824C38.339 20.454 38.771 19.682 38.771 18.939V6.353C38.771 4.933 38.339 4.344 36.144 4.19V2.181H47.336V4.19C45.141 4.344 44.709 4.933 44.709 6.353V19.67C44.709 20.409 44.925 20.936 46.78 20.936H48.789C49.931 20.936 51.292 20.38 52.251 17.35H54.26L53.952 22.833ZM55.559 15.258C55.559 10.251 59.177 6.54 64.308 6.54C69.719 6.54 72.841 10.188 72.841 14.639C72.841 19.619 69.163 23.268 64.124 23.268C58.621 23.268 55.559 19.711 55.559 15.258ZM67.03 16.403C67.03 11.488 65.328 8.549 63.66 8.549C62.083 8.549 61.435 10.529 61.435 13.373C61.435 18.382 63.166 21.259 64.802 21.259C66.352 21.259 67.03 19.309 67.03 16.403ZM74.758 15.258C74.758 10.251 78.376 6.54 83.507 6.54C88.918 6.54 92.04 10.188 92.04 14.639C92.04 19.619 88.362 23.268 83.32 23.268C77.82 23.268 74.758 19.711 74.758 15.258ZM86.229 16.403C86.229 11.488 84.528 8.549 82.859 8.549C81.282 8.549 80.631 10.529 80.631 13.373C80.631 18.382 82.365 21.259 84.001 21.259C85.548 21.259 86.229 19.309 86.229 16.403ZM111.123 14.393C111.123 19.803 107.848 23.271 103.117 23.271C102.163 23.289 101.215 23.109 100.333 22.744V25.032C100.333 26.177 100.798 26.642 102.901 26.949V28.97H92.791V26.961C94.398 26.591 94.584 26.189 94.584 25.044V11.431C94.584 10.626 94.306 10.162 93.285 9.7L92.791 9.484V7.874L99.096 6.546H100.333V8.525C101.128 7.266 102.525 6.514 104.014 6.546C108.928 6.54 111.123 10.328 111.123 14.393ZM105.188 15.506C105.188 12.289 104.301 9.508 102.159 9.508C101.229 9.508 101.076 9.446 100.333 10.002V16.216C100.333 19.898 100.925 20.981 102.528 20.981C104.014 20.981 105.188 19.155 105.188 15.506ZM126.065 8.363L123.222 12.26C121.861 9.537 120.559 8.395 119.017 8.395C118.088 8.395 116.884 8.952 116.884 9.91C116.884 13.165 126.559 11.053 126.376 18.229C126.281 20.824 123.778 23.259 119.449 23.259C115.677 23.259 112.526 21.371 111.757 20.691L115.097 17.199C116.952 20.105 118.467 21.404 119.949 21.404C120.722 21.404 122.083 21.063 122.115 19.548C122.115 16.054 112.561 18.868 112.591 11.854C112.591 8.546 115.343 6.528 119.733 6.528C123.189 6.54 125.417 7.744 126.065 8.363Z" fill="white"/>
</svg>
