<svg preserveAspectRatio="none" width="178" height="21" viewBox="0 0 178 21" fill="none" xmlns="http://www.w3.org/2000/svg">
<g clip-path="url(#clip0_251_7768)">
<path d="M14.048 11.045H2.879V20.516H0V0.437H2.88V8.306H14.048V0.437H16.928V20.545H14.048V11.045ZM34.728 0.146C40.428 0.146 44.762 4.604 44.762 10.491C44.762 16.349 40.399 20.836 34.727 20.836C29.056 20.836 24.693 16.378 24.693 10.491C24.723 4.604 29.086 0.146 34.728 0.146ZM34.728 18.068C38.828 18.068 41.911 14.804 41.911 10.433C41.911 6.061 38.857 2.798 34.728 2.798C30.597 2.798 27.544 6.061 27.544 10.433C27.602 14.862 30.656 18.068 34.728 18.068ZM54.069 20.545V0.437H60.089C63.26 0.437 65.325 1.136 66.954 2.331C69.426 4.167 70.967 7.14 70.967 10.52C70.967 13.842 69.426 16.873 66.954 18.709C65.325 19.904 63.231 20.603 60.031 20.603H54.069V20.545ZM65.674 4.838C64.394 3.759 62.765 3.147 59.944 3.147H56.919V17.806H59.944C62.765 17.806 64.394 17.223 65.674 16.116C67.215 14.775 68.088 12.735 68.088 10.462C68.117 8.218 67.215 6.178 65.674 4.838ZM80.216 0.437H83.096V20.545H80.216V0.437ZM96.533 5.77V20.545H93.654V0.437H95.69L107.76 15.212V0.437H110.639V20.545H108.603L96.533 5.77ZM121.168 0.437H124.047V8.917L132.307 0.437H136.117L127.072 9.762L136.728 20.516H133.064L124.105 10.462V20.516H121.197V0.437H121.168ZM154.557 8.306V11.045H147.984V17.777H156.884V20.516H145.105V0.437H156.594V3.176H147.984V8.335H154.557V8.306ZM175.673 8.306V11.045H169.1V17.777H178V20.516H166.22V0.437H177.709V3.176H169.1V8.335H175.673V8.306Z" fill="white"/>
</g>
<defs>
<clipPath id="clip0_251_7768">
<rect width="178" height="21" fill="white"/>
</clipPath>
</defs>
</svg>
