<svg preserveAspectRatio="none" width="109" height="30" viewBox="0 0 109 30" fill="none" xmlns="http://www.w3.org/2000/svg">
<g clip-path="url(#clip0_251_7770)">
<path d="M7.058 0.733C11.881 4.603 15.955 9.275 19.104 14.531L22.264 11.493C23.781 10.054 25.563 8.935 27.506 8.201C26.621 5.279 25.413 2.853 23.433 0.45C23.314 0.306 23.166 0.191 22.996 0.116C22.826 0.04 22.638 0 22.451 0H7.331C7.24 0 7.155 0.029 7.087 0.075C7.018 0.121 6.962 0.196 6.928 0.277C6.894 0.358 6.894 0.445 6.916 0.526C6.939 0.606 6.99 0.681 7.058 0.733ZM16.011 19.324C18.326 20.283 20.687 21.137 23.115 21.773C27.45 22.91 31.557 21.276 33.589 17.505L36.045 12.74C36.59 11.579 37.294 10.494 38.128 9.512C35.735 8.661 33.161 8.485 30.678 9.004C28.193 9.523 25.912 10.719 24.102 12.446L20.346 16.055C19.024 17.332 17.583 18.348 16.011 19.324ZM0.726 10.009C0.664 9.952 0.587 9.914 0.505 9.899C0.423 9.885 0.338 9.895 0.261 9.928C0.182 9.957 0.119 10.014 0.074 10.078C0.028 10.147 0 10.228 0 10.309V24.695C0 24.891 0.051 25.088 0.148 25.267C0.244 25.44 0.386 25.59 0.55 25.706C4.42 28.201 7.745 29.564 12.386 29.627C17.033 29.691 21.594 28.455 25.538 26.064C26.99 25.186 27.274 24.811 28.488 23.667C26.258 24.256 24.216 24.089 22.048 23.523C12.931 21.12 7.376 16.263 0.726 10.009ZM76.477 11.06C75.336 10.112 73.697 9.639 71.563 9.639C69.43 9.639 67.291 10.084 65.124 11.909C65.016 12.001 65.01 12.163 65.106 12.261L67.064 14.253C67.143 14.334 67.263 14.346 67.353 14.288C69.05 13.248 70.162 12.919 71.393 12.919C73.044 12.919 73.872 13.739 73.872 15.385V16.096L71.109 16.182C68.726 16.269 66.945 16.719 65.759 17.539C64.579 18.354 63.983 19.624 63.983 21.345C63.983 23.066 64.42 24.256 65.299 25.146C66.179 26.035 67.382 26.48 68.914 26.48C70.156 26.48 71.166 26.301 71.943 25.937C72.602 25.631 73.248 25.111 73.872 24.383V25.948C73.872 26.081 73.98 26.191 74.111 26.191H77.958C78.088 26.191 78.196 26.081 78.196 25.948V15.385C78.196 13.451 77.628 12.013 76.488 11.065L76.477 11.06ZM72.965 22.356C72.363 22.945 71.558 23.24 70.548 23.24C69.141 23.24 68.437 22.616 68.437 21.368C68.437 20.496 68.743 19.85 69.362 19.428C69.98 19.001 70.922 18.77 72.182 18.729L73.861 18.671V20.006C73.861 20.982 73.56 21.767 72.959 22.356H72.965ZM108.84 25.804L103.501 18.048V18.036L108.556 10.274C108.604 10.2 108.607 10.105 108.566 10.027C108.525 9.949 108.445 9.899 108.358 9.899H103.892C103.654 9.899 103.433 10.02 103.302 10.222L98.899 16.979V3.783C98.899 3.65 98.792 3.54 98.661 3.54H94.803C94.672 3.54 94.565 3.65 94.565 3.783V25.942C94.565 26.075 94.672 26.185 94.803 26.185H98.661C98.792 26.185 98.899 26.075 98.899 25.942V19.047L103.597 25.879C103.728 26.07 103.949 26.185 104.182 26.185H108.647C108.84 26.185 108.953 25.966 108.84 25.804ZM61.402 26.185H48.25C47.699 26.185 47.257 25.735 47.257 25.174V3.794C47.257 3.656 47.37 3.54 47.506 3.54H51.393C51.529 3.54 51.643 3.656 51.643 3.794V21.727H61.407C61.543 21.727 61.657 21.842 61.657 21.981V25.937C61.657 26.075 61.543 26.191 61.407 26.191L61.402 26.185ZM92.142 9.864C88.868 9.223 86.684 10.361 85.345 12.203V10.199C85.345 10.066 85.237 9.957 85.107 9.957H81.26C81.129 9.957 81.021 10.066 81.021 10.199V25.948C81.021 26.081 81.129 26.191 81.26 26.191H85.107C85.237 26.191 85.345 26.081 85.345 25.948V17.332C85.345 17.014 85.379 16.696 85.464 16.39C86.179 13.791 89.436 13.22 92.051 13.745C92.199 13.774 92.335 13.659 92.335 13.508V10.101C92.335 9.985 92.255 9.887 92.148 9.864H92.142Z" fill="white"/>
</g>
<defs>
<clipPath id="clip0_251_7770">
<rect width="109" height="30" fill="white"/>
</clipPath>
</defs>
</svg>
