<svg preserveAspectRatio="none" width="160" height="30" viewBox="0 0 160 30" fill="none" xmlns="http://www.w3.org/2000/svg">
<g clip-path="url(#clip0_251_7777)">
<path d="M55.157 21.363V11.371H55.113L52.052 21.363H48.883L45.82 11.371H45.777V21.363H42.565V8.356H47.912L50.456 17.228H50.5L53.023 8.334H58.37V21.342H55.157V21.363ZM69.992 16.259C69.992 16.583 69.97 17.185 69.97 17.185H63.071C63.135 18.198 63.954 18.887 65.27 18.887C66.607 18.887 67.512 18.37 68.138 17.874H68.288L69.28 20.437C68.655 20.932 67.232 21.579 65.334 21.579C62.272 21.579 60.073 19.619 60.073 16.216C60.073 12.857 62.272 10.725 65.14 10.725C68.052 10.725 69.992 12.964 69.992 16.259ZM63.178 14.968H67.167C67.081 14.149 66.348 13.352 65.184 13.352C63.998 13.352 63.307 14.128 63.178 14.968ZM79.76 12.34L78.66 14.773H78.509C77.625 13.804 76.396 13.309 75.447 13.309C74.65 13.309 74.347 13.653 74.347 13.998C74.347 14.451 74.52 14.515 76.741 15.054C78.811 15.549 80.169 16.346 80.169 18.349C80.169 20.437 78.703 21.579 76.159 21.579C73.636 21.579 71.825 20.631 71.113 19.878L72.278 17.272H72.428C73.334 18.025 74.455 18.757 76.051 18.757C77 18.757 77.173 18.499 77.173 18.154C77.173 17.81 76.978 17.616 74.736 17.056C72.321 16.453 71.393 15.484 71.393 13.912C71.393 11.952 72.968 10.703 75.318 10.703C77.56 10.725 79.286 11.78 79.76 12.34ZM89.743 12.34L88.643 14.773H88.493C87.608 13.804 86.38 13.309 85.43 13.309C84.633 13.309 84.331 13.653 84.331 13.998C84.331 14.451 84.503 14.515 86.725 15.054C88.794 15.549 90.153 16.346 90.153 18.349C90.153 20.437 88.687 21.579 86.142 21.579C83.62 21.579 81.809 20.631 81.097 19.878L82.261 17.272H82.412C83.317 18.025 84.439 18.757 86.035 18.757C86.983 18.757 87.156 18.499 87.156 18.154C87.156 17.81 86.962 17.616 84.719 17.056C82.304 16.453 81.377 15.484 81.377 13.912C81.377 11.952 82.951 10.703 85.302 10.703C87.566 10.725 89.29 11.78 89.743 12.34ZM99.791 14.73V21.363H97.355L97.097 19.985H97.032C96.536 20.868 95.501 21.579 94.034 21.579C92.029 21.579 90.994 20.286 90.994 18.585C90.994 16.884 91.77 15.807 94.206 15.333C96.643 14.859 96.816 14.687 96.816 14.17C96.816 13.675 96.342 13.395 95.371 13.395C94.315 13.395 93.129 14.149 92.482 15.118H92.331L91.102 12.599C92.244 11.478 93.71 10.725 95.565 10.725C97.915 10.725 99.791 12.254 99.791 14.73ZM96.816 16.755C96.643 17.035 96.32 17.228 95.22 17.486C94.164 17.745 94.013 18.047 94.013 18.456C94.013 18.865 94.358 19.059 94.896 19.059C95.76 19.059 96.859 18.499 96.859 17.659V16.755H96.816ZM108.481 12.318H108.546L108.718 10.94H111.134V20.028C111.134 23.237 109.322 25.003 106.023 25.003C104.147 25.003 102.702 24.378 101.818 23.732L102.745 21.083H102.896C103.781 21.794 104.729 22.224 105.915 22.224C107.49 22.224 108.05 21.6 108.05 20.2V19.252H107.985C107.532 19.92 106.649 20.481 105.312 20.481C102.831 20.481 101.107 18.542 101.107 15.785C101.107 12.771 103.155 10.703 105.57 10.703C107.036 10.725 108.05 11.586 108.481 12.318ZM104.277 15.699C104.277 16.97 105.074 17.767 106.282 17.767C107.446 17.767 108.244 17.035 108.244 15.678C108.244 14.386 107.554 13.46 106.282 13.46C104.967 13.46 104.277 14.428 104.277 15.699ZM122.561 16.259C122.561 16.583 122.54 17.185 122.54 17.185H115.64C115.705 18.198 116.524 18.887 117.839 18.887C119.176 18.887 120.082 18.37 120.707 17.874H120.858L121.828 20.459C121.203 20.954 119.78 21.6 117.883 21.6C114.82 21.6 112.621 19.641 112.621 16.238C112.621 12.878 114.82 10.746 117.688 10.746C120.621 10.725 122.561 12.964 122.561 16.259ZM115.747 14.968H119.737C119.651 14.149 118.918 13.352 117.753 13.352C116.588 13.352 115.877 14.128 115.747 14.968ZM131.208 8.356C133.774 8.356 135.154 9.604 135.154 11.694C135.154 13.18 134.464 14.106 133.106 14.687V14.73C134.334 15.204 135.154 16.216 135.154 17.896C135.154 19.576 134.205 21.363 130.734 21.363H124.222V8.356H131.208ZM127.521 13.653H130.625C131.402 13.653 131.834 13.201 131.834 12.534C131.834 11.887 131.489 11.371 130.518 11.371H127.521V13.653ZM127.521 18.349H130.625C131.402 18.349 131.834 17.896 131.834 17.207C131.834 16.518 131.489 16.001 130.518 16.001H127.521V18.349ZM140.242 7.775C140.242 8.894 139.553 9.713 138.302 9.713C137.052 9.713 136.361 8.894 136.361 7.775C136.361 6.633 137.052 5.879 138.302 5.879C139.553 5.879 140.242 6.633 140.242 7.775ZM136.75 21.363V10.94H139.811V21.342H136.75V21.363ZM148.867 11.586L148.415 14.386H148.264C147.902 13.983 147.383 13.755 146.841 13.761C145.612 13.761 144.9 14.881 144.9 16.755V21.363H141.838V10.94H144.361L144.534 12.318H144.598C145.159 11.198 146.022 10.725 146.97 10.725C147.704 10.725 148.48 11.005 148.867 11.586ZM157.126 21.363L156.867 19.985H156.802C156.199 20.932 155.294 21.579 153.633 21.579C150.83 21.579 149.062 19.339 149.062 16.302C149.062 13.18 150.916 10.725 153.719 10.725C154.948 10.725 155.961 11.198 156.544 12.017H156.587V7.559H159.563V21.363H157.126ZM152.124 16.173C152.124 17.745 153.03 18.736 154.388 18.736C155.746 18.736 156.674 17.853 156.674 16.152C156.674 14.579 155.768 13.46 154.431 13.46C153.094 13.46 152.124 14.601 152.124 16.173ZM31.826 5.319C30.448 5.323 29.157 5.989 28.355 7.107L23.115 14.428C22.852 14.807 22.374 14.97 21.934 14.832C21.493 14.694 21.195 14.286 21.196 13.826C21.196 13.611 21.261 13.395 21.368 13.244L25.789 6.633C26.258 5.932 26.507 5.108 26.501 4.264C26.502 3.139 26.056 2.06 25.259 1.263C24.462 0.467 23.38 0.021 22.252 0.021H0V4.264H19.062C19.059 5.44 18.105 6.393 16.926 6.396H0C0 7.903 0.324 9.346 0.884 10.639H14.792C14.79 11.814 13.836 12.767 12.657 12.771H2.134C4.141 15.45 7.3 17.023 10.652 17.013H15.891C16.459 17.036 16.908 17.501 16.908 18.068C16.908 18.635 16.459 19.101 15.891 19.124H10.63L3.515 29.74H16.388C22.274 29.74 27.277 25.907 29.024 20.609L31.417 13.352C32.192 11.023 33.594 8.952 35.47 7.365C34.702 6.09 33.318 5.312 31.826 5.319ZM31.826 8.226C31.388 8.219 31.035 7.867 31.028 7.43C31.035 6.993 31.388 6.64 31.826 6.633C32.258 6.633 32.624 6.999 32.624 7.43C32.625 7.641 32.541 7.844 32.392 7.994C32.242 8.143 32.038 8.227 31.826 8.226Z" fill="white"/>
</g>
<defs>
<clipPath id="clip0_251_7777">
<rect width="160" height="30" fill="white"/>
</clipPath>
</defs>
</svg>
