<svg preserveAspectRatio="none" width="148" height="28" viewBox="0 0 148 28" fill="none" xmlns="http://www.w3.org/2000/svg">
<g clip-path="url(#clip0_251_7762)">
<path d="M52.3 18.8C51.3 22.4 48.3 24.8 44 24.8C38.5 24.8 34.7 20.9 34.7 15C34.7 8.8 39.2 4.3 45.7 4.3C48.2 4.3 50 4.9 51 5.3L51.6 11H51.2C48.9 7.4 46.9 5.1 45.2 5.1C42.9 5.1 41.1 7.9 41.1 12.4C41.1 18.1 44.1 20.3 47.5 20.3C49.4 20.3 51.1 19.6 52.1 18.7H52.3V18.8ZM68 14.6C68 9 66.9 5 64 5C61.1 5 60 8.9 60 14.5C60 20.1 61.2 23.9 64 23.9C66.8 23.9 68 20.1 68 14.5M53.4 14.5C53.4 9 58.2 4.3 64 4.3C69.8 4.3 74.6 9.1 74.6 14.6C74.6 20.1 69.8 24.7 64 24.7C58.2 24.7 53.4 20.1 53.4 14.6M84.8 24.2H76.5V24C77.1 22 77.5 20.5 77.5 17.1V12.7C77.5 9.7 76.9 8.1 75.5 6.4L83.6 4V8H83.8C84.8 6.4 86.9 4.2 90.4 4.2C93.9 4.2 96.4 6.4 96.4 9.7V17.1C96.4 20.4 96.6 22.1 97.3 24H89C89.7 22 90 20.3 90 17.2V10.1C90 8.4 89.2 7.1 87.3 7.1C85.8 7.1 84.6 8.1 83.8 9.1V17.1C83.8 20.4 84.1 22.1 84.8 24V24.2ZM100.5 19.3V5.8H98.3V5.5L106.3 0.4H106.8V5H121V5.8H106.8V19.1C106.8 21.5 108.1 22.2 109.6 22.2C111 22.2 111.9 21.6 111.9 21.6H112C111.1 23.2 109 24.7 105.9 24.7C102.7 24.7 100.5 23.2 100.5 19.3Z" fill="white"/>
<path d="M113.9 24.2V24C114.5 22 114.9 20.5 114.9 17.1V12.7C114.9 9.7 115 7.3 113.6 5.7V5.6L121 5V8.9C122.7 7.2 124.6 4.1 128 4.3L127.3 11H127.1C126.085 9.711 124.621 8.854 123 8.6C122.4 8.6 121.7 9.1 121.2 9.8V17.2C121.2 20.5 121.5 22.2 122.2 24.1H113.9V24.2ZM138.4 21V14.2C135.6 15 134.1 16.9 134.1 18.8C134.1 20.3 135 21.3 136.7 21.3C137.4 21.3 137.9 21.2 138.4 20.9M138.5 21.7C137.4 23.3 135.5 24.7 133 24.7C130.6 24.7 128.5 23 128.5 20.1C128.5 15.8 133.9 14.3 138.4 13.4V11.4C138.4 9 137.4 7.9 134.6 7.9C133.1 7.9 131.2 8.2 129.5 8.9L129.3 8.7C131.3 6.4 134.3 4.3 138.6 4.3C142.8 4.3 144.7 6.4 144.7 9.5V19.6C144.7 20.6 145.2 21.4 146.4 21.4C146.9 21.4 147.4 21.3 147.9 20.9L148 21.1C147.4 22.4 146 24.7 142.7 24.7C140.3 24.7 138.9 23.4 138.5 21.7Z" fill="white"/>
<path d="M105.5 5.7H121V4.7H105.5V5.7ZM14.8 13H27.3C27.5 13 27.6 13 27.6 12.8V12.4C27.6 12.3 27.6 12.2 27.4 12.2C21.5 10.6 16.9 6.1 15.4 0.2L15 0H14.7C14.6 0 14.5 0.1 14.5 0.3V12.8C14.5 12.9 14.5 13 14.7 13H14.8ZM14.8 27.6H15.2L15.4 27.4C17 21.5 21.5 16.9 27.4 15.4L27.6 15.1V14.8C27.6 14.7 27.5 14.5 27.3 14.5H14.8L14.6 14.8V27.3C14.6 27.5 14.6 27.6 14.8 27.6ZM12.5 27.6H12.8C12.9 27.6 13 27.5 13 27.3V14.8C13 14.7 13 14.5 12.8 14.5H0.3C0.1 14.5 0 14.7 0 14.8V15.2C0 15.3 0 15.4 0.2 15.4C6.1 16.9 10.7 21.5 12.2 27.4L12.5 27.6ZM0.3 13H12.8C12.9 13 13 13 13 12.8V0.3C13 0.1 13 0 12.8 0H12.4C12.3 0 12.2 0 12.2 0.2C10.6 6 6 10.7 0.2 12.2L0 12.5V12.8C0 12.9 0.1 13 0.3 13Z" fill="white"/>
</g>
<defs>
<clipPath id="clip0_251_7762">
<rect width="148" height="28" fill="white"/>
</clipPath>
</defs>
</svg>
