<svg preserveAspectRatio="none" width="134" height="40" viewBox="0 0 134 40" fill="none" xmlns="http://www.w3.org/2000/svg">
<g clip-path="url(#clip0_251_7760)">
<path d="M121.837 15.338C118.922 16.303 116.008 16.699 116.008 16.699M95.23 23.804C97.638 23.054 99.045 22.356 100.416 21.602M104.272 14.428C101.777 15.631 97.857 17.169 97.857 17.169M71.062 23.393C70.531 23.536 68.067 24.262 68.067 24.262M70.136 16.26C70.136 16.26 72.939 15.113 74.461 14.431C79.662 11.731 81.533 8.444 81.721 5.859C81.909 3.274 79.569 1.866 77.01 1.866H76.943C73.365 1.866 70.318 2.853 67.768 4.535M89.331 22.3C89.142 22.368 86.978 23.222 86.796 23.281C85.324 23.782 84.126 24.057 82.937 24.262M84.549 16.26C84.549 16.26 87.349 15.437 89.096 14.431C94.1 11.731 95.73 8.444 95.73 5.859C95.73 3.274 93.285 1.866 90.726 1.866C88.515 1.866 86.142 2.517 83.82 3.725M59.124 22.3C55.852 23.396 53.997 24.044 52.728 24.265M58.893 14.434C58.748 14.494 56.646 15.465 56.507 15.518C55.284 15.992 54.34 16.263 54.34 16.263M9.964 30.364C9.964 30.364 13.048 28.486 18.333 29.424M38.698 27.047C35.876 27.857 33.549 27.857 33.549 27.857M38.846 12.397C38.846 12.397 39.621 16.201 36.796 20.001M18.238 12.397C18.238 12.397 19.012 16.201 16.188 20.001M31.153 12.391C31.002 14.871 30.496 17.727 29.638 20.882C26.853 31.087 21.951 38.142 18.463 38.142C15.62 38.142 14.32 35.495 14.061 31.972M12.19 33.828C10.909 35.99 8.906 38.142 6.01 38.142C1.938 38.142 -0.507 31.685 5.312 19.004C11.125 6.326 18.318 1.866 24.834 1.866C27.217 1.866 28.931 2.922 29.974 4.847M31.039 8.382C31.771 7.454 32.577 6.6 33.453 5.837C36.281 3.376 39.871 1.866 44.288 1.866C49.407 1.866 52.586 5.27 52.247 11.142C51.907 17.014 46.483 25.172 38.695 27.05M38.352 29.763C37.735 33.049 36.025 38.145 31.373 38.145C29.267 38.145 27.477 37.248 26.341 35.043M53.16 3.968C55.624 2.604 58.161 1.866 60.517 1.866C63.076 1.866 65.521 3.274 65.521 5.859C65.521 8.444 63.891 11.731 58.887 14.431M62.406 14.973C63.15 15.388 63.715 16.085 63.715 17.25C63.715 20.655 59.118 22.3 59.118 22.3M62.406 23.324C62.869 23.795 63.19 24.48 63.19 25.471C63.19 30.99 54.787 38.152 47.931 38.152C43.31 38.152 41.001 36.233 40.229 31.878M78.202 15.145C78.776 15.571 79.159 16.232 79.082 17.25C78.832 20.655 74.115 22.3 74.115 22.3C71.096 23.396 71.059 23.396 71.059 23.396M70.747 26.355C70.13 30.663 68.351 38.152 63.462 38.152C61.665 38.152 60.183 37.588 59.121 36.258M92.902 15.154C93.498 15.581 93.924 16.241 93.924 17.25C93.924 20.655 89.327 22.3 89.327 22.3M92.615 23.324C93.078 23.795 93.399 24.48 93.399 25.471C93.399 30.99 84.996 38.152 78.14 38.152C74.457 38.152 72.241 36.934 71.105 34.233M88.457 36.625C89.658 37.635 91.254 38.152 93.313 38.152C101.573 38.152 109.489 27.389 109.489 20.2C109.489 17.637 108.825 16.169 107.97 15.341M104.265 14.434C109.269 11.734 110.9 8.448 110.9 5.862C110.9 3.277 108.454 1.869 105.895 1.869C103.337 1.869 100.41 2.872 97.777 4.463M112.659 3.23C115.415 2.38 118.561 1.869 122.043 1.869C129.887 1.869 132.137 4.14 132.137 6.8C132.137 12.553 121.83 15.341 121.83 15.341M121.821 18.017C121.565 25.206 119.565 38.152 113.557 38.152C110.985 38.152 108.973 35.725 108.321 30.613" stroke="white" stroke-width="3" stroke-linecap="round" stroke-linejoin="round"/>
</g>
<defs>
<clipPath id="clip0_251_7760">
<rect width="134" height="40" fill="white"/>
</clipPath>
</defs>
</svg>
