<svg preserveAspectRatio="none" width="75" height="74" viewBox="0 0 75 74" fill="none" xmlns="http://www.w3.org/2000/svg">
<path d="M40.1786 63.4286H34.8214C34.111 63.4286 33.4297 63.707 32.9274 64.2026C32.4251 64.6983 32.1429 65.3705 32.1429 66.0714V71.3571C32.1429 72.0581 32.4251 72.7303 32.9274 73.2259C33.4297 73.7216 34.111 74 34.8214 74H40.1786C40.889 74 41.5703 73.7216 42.0726 73.2259C42.5749 72.7303 42.8571 72.0581 42.8571 71.3571V66.0714C42.8571 65.3705 42.5749 64.6983 42.0726 64.2026C41.5703 63.707 40.889 63.4286 40.1786 63.4286ZM24.1071 63.4286H18.75C18.0396 63.4286 17.3583 63.707 16.856 64.2026C16.3536 64.6983 16.0714 65.3705 16.0714 66.0714V71.3571C16.0714 72.0581 16.3536 72.7303 16.856 73.2259C17.3583 73.7216 18.0396 74 18.75 74H24.1071C24.8175 74 25.4988 73.7216 26.0012 73.2259C26.5035 72.7303 26.7857 72.0581 26.7857 71.3571V66.0714C26.7857 65.3705 26.5035 64.6983 26.0012 64.2026C25.4988 63.707 24.8175 63.4286 24.1071 63.4286ZM56.25 63.4286H50.8929C50.1825 63.4286 49.5011 63.707 48.9988 64.2026C48.4965 64.6983 48.2143 65.3705 48.2143 66.0714V71.3571C48.2143 72.0581 48.4965 72.7303 48.9988 73.2259C49.5011 73.7216 50.1825 74 50.8929 74H56.25C56.9604 74 57.6417 73.7216 58.144 73.2259C58.6464 72.7303 58.9286 72.0581 58.9286 71.3571V66.0714C58.9286 65.3705 58.6464 64.6983 58.144 64.2026C57.6417 63.707 56.9604 63.4286 56.25 63.4286ZM72.3214 31.7143H66.9643C66.2539 31.7143 65.5726 31.9927 65.0702 32.4884C64.5679 32.984 64.2857 33.6562 64.2857 34.3571V39.6429C64.2857 40.3438 64.5679 41.016 65.0702 41.5116C65.5726 42.0073 66.2539 42.2857 66.9643 42.2857H72.3214C73.0318 42.2857 73.7131 42.0073 74.2155 41.5116C74.7178 41.016 75 40.3438 75 39.6429V34.3571C75 33.6562 74.7178 32.984 74.2155 32.4884C73.7131 31.9927 73.0318 31.7143 72.3214 31.7143ZM72.3214 47.5714H66.9643C66.2539 47.5714 65.5726 47.8499 65.0702 48.3455C64.5679 48.8411 64.2857 49.5134 64.2857 50.2143V55.5C64.2857 56.2009 64.5679 56.8732 65.0702 57.3688C65.5726 57.8644 66.2539 58.1429 66.9643 58.1429H72.3214C73.0318 58.1429 73.7131 57.8644 74.2155 57.3688C74.7178 56.8732 75 56.2009 75 55.5V50.2143C75 49.5134 74.7178 48.8411 74.2155 48.3455C73.7131 47.8499 73.0318 47.5714 72.3214 47.5714ZM72.3214 63.4286H66.9643C66.2539 63.4286 65.5726 63.707 65.0702 64.2026C64.5679 64.6983 64.2857 65.3705 64.2857 66.0714V71.3571C64.2857 72.0581 64.5679 72.7303 65.0702 73.2259C65.5726 73.7216 66.2539 74 66.9643 74H72.3214C73.0318 74 73.7131 73.7216 74.2155 73.2259C74.7178 72.7303 75 72.0581 75 71.3571V66.0714C75 65.3705 74.7178 64.6983 74.2155 64.2026C73.7131 63.707 73.0318 63.4286 72.3214 63.4286ZM72.3214 15.8571H66.9643C66.2539 15.8571 65.5726 16.1356 65.0702 16.6312C64.5679 17.1268 64.2857 17.7991 64.2857 18.5V23.7857C64.2857 24.4866 64.5679 25.1589 65.0702 25.6545C65.5726 26.1501 66.2539 26.4286 66.9643 26.4286H72.3214C73.0318 26.4286 73.7131 26.1501 74.2155 25.6545C74.7178 25.1589 75 24.4866 75 23.7857V18.5C75 17.7991 74.7178 17.1268 74.2155 16.6312C73.7131 16.1356 73.0318 15.8571 72.3214 15.8571ZM72.3214 0H5.35714C3.93634 0 2.57373 0.556886 1.56907 1.54815C0.564412 2.53941 0 3.88386 0 5.28571L0 71.3571C0 72.0581 0.282206 72.7303 0.784535 73.2259C1.28687 73.7216 1.96817 74 2.67857 74H8.03571C8.74612 74 9.42742 73.7216 9.92975 73.2259C10.4321 72.7303 10.7143 72.0581 10.7143 71.3571V10.5714H72.3214C73.0318 10.5714 73.7131 10.293 74.2155 9.79735C74.7178 9.30172 75 8.6295 75 7.92857V2.64286C75 1.94193 74.7178 1.26971 74.2155 0.774075C73.7131 0.278443 73.0318 0 72.3214 0Z" fill="black"/>
</svg>
