<svg preserveAspectRatio="none" width="17" height="15" viewBox="0 0 17 15" fill="none" xmlns="http://www.w3.org/2000/svg">
<path d="M14.329 0L17 4.6875H14.0161L11.9738 0H14.329ZM10.5512 0L12.5936 4.6875H4.40642L6.44878 0H10.5512ZM2.67101 0H5.02622L2.98385 4.6875H0L2.67101 0ZM0 5.625H2.97205L6.60226 12.999C6.64653 13.0898 6.52257 13.1719 6.45469 13.0957L0 5.625ZM4.37396 5.625H12.626L8.58264 14.9473C8.55312 15.0176 8.44983 15.0176 8.42031 14.9473L4.37396 5.625ZM10.3977 12.999L14.028 5.625H17L10.5453 13.0928C10.4774 13.1719 10.3535 13.0898 10.3977 12.999Z" fill="#01A8FE"/>
</svg>
