<svg preserveAspectRatio="none" width="17" height="18" viewBox="0 0 17 18" fill="none" xmlns="http://www.w3.org/2000/svg">
<path d="M7.69933 0.77693C8.075 0.5836 8.68594 0.580563 9.0635 0.769844L16.317 4.40127C16.6964 4.59022 17 5.05718 17 5.44249V12.7738C17 13.1598 16.6942 13.6271 16.317 13.8198L9.06199 17.4887C8.68518 17.6796 8.07538 17.6766 7.70161 17.4816L0.677723 13.8238C0.303571 13.6288 0 13.1578 0 12.7738V5.44249C0 5.0565 0.303571 4.58684 0.679621 4.39385L7.69933 0.77693ZM4.76228 7.51918C4.15741 7.51918 3.55217 7.5239 2.9473 7.5239V10.9468H3.67321V9.93968H4.76228C6.64859 9.93968 6.6429 7.51918 4.76228 7.51918ZM10.0801 10.903L8.914 9.73421C10.318 9.48082 10.2345 7.53335 8.50152 7.5239C7.89096 7.5239 7.28078 7.51918 6.67022 7.51918V10.9468H7.39614V9.8027H8.09473L9.21643 10.9468H10.0801V10.903ZM8.5019 8.12549C9.38757 8.12549 9.38453 9.22069 8.5019 9.22069H7.39652V8.12549H8.5019ZM4.87574 8.0715C5.67944 8.0715 5.67679 9.3823 4.87574 9.3823H3.64969V8.07184L4.87574 8.0715ZM12.1861 7.45575C9.5883 7.45575 9.49192 11.0254 12.1861 11.0254C14.8226 11.0251 14.82 7.45575 12.1861 7.45575ZM12.1861 8.04249C13.8603 8.04249 13.8861 10.4333 12.1861 10.4333C10.4861 10.4333 10.5002 8.04249 12.1861 8.04249Z" fill="#01A8FE"/>
</svg>
