<svg preserveAspectRatio="none" width="17" height="17" viewBox="0 0 17 17" fill="none" xmlns="http://www.w3.org/2000/svg">
<path d="M8.5 0.629883C3.80444 0.629883 0 4.21053 0 8.62988C0 13.0492 3.80444 16.6299 8.5 16.6299C13.1956 16.6299 17 13.0492 17 8.62988C17 4.21053 13.1956 0.629883 8.5 0.629883ZM8.5 3.72666C10.1657 3.72666 11.5161 4.99762 11.5161 6.56537C11.5161 8.13311 10.1657 9.40408 8.5 9.40408C6.83427 9.40408 5.48387 8.13311 5.48387 6.56537C5.48387 4.99762 6.83427 3.72666 8.5 3.72666ZM8.5 14.8234C6.4881 14.8234 4.68528 13.9654 3.47883 12.6234C4.12319 11.4815 5.38448 10.6944 6.85484 10.6944C6.9371 10.6944 7.01936 10.7073 7.09819 10.7299C7.54375 10.8654 8.00988 10.9525 8.5 10.9525C8.99012 10.9525 9.45968 10.8654 9.90181 10.7299C9.98065 10.7073 10.0629 10.6944 10.1452 10.6944C11.6155 10.6944 12.8768 11.4815 13.5212 12.6234C12.3147 13.9654 10.5119 14.8234 8.5 14.8234Z" fill="#01A8FE"/>
</svg>
