<svg preserveAspectRatio="none" width="17" height="23" viewBox="0 0 17 23" fill="none" xmlns="http://www.w3.org/2000/svg">
<path d="M0 15.8125C0 17.7187 0.746278 19.5469 2.07466 20.8948C3.40304 22.2427 5.20472 23 7.08333 23H9.91667C10.8469 23 11.768 22.8141 12.6273 22.4529C13.4867 22.0917 14.2676 21.5623 14.9253 20.8948C15.5831 20.2274 16.1048 19.4351 16.4608 18.563C16.8168 17.691 17 16.7564 17 15.8125V10.0625H0V15.8125ZM7.79167 0H7.08333C5.20472 0 3.40304 0.757252 2.07466 2.10517C0.746278 3.45309 0 5.28126 0 7.1875L0 8.625H7.79167V0ZM9.91667 0H9.20833V8.625H17V7.1875C17 6.24362 16.8168 5.30899 16.4608 4.43696C16.1048 3.56494 15.5831 2.77259 14.9253 2.10517C14.2676 1.43775 13.4867 0.908322 12.6273 0.547116C11.768 0.18591 10.8469 0 9.91667 0Z" fill="#0099FF"/>
</svg>
