<svg preserveAspectRatio="none" width="95" height="83" viewBox="0 0 95 83" fill="none" xmlns="http://www.w3.org/2000/svg">
<path d="M59.375 56.3214C59.375 57.9592 58.0465 59.2857 56.4062 59.2857H38.5937C36.9535 59.2857 35.625 57.9592 35.625 56.3214V47.4286H0V74.1071C0 78.85 4.15625 83 8.90625 83H86.0937C90.8437 83 95 78.85 95 74.1071V47.4286H59.375V56.3214ZM86.0937 17.7857H71.25V8.89286C71.25 4.15 67.0937 0 62.3437 0H32.6562C27.9062 0 23.75 4.15 23.75 8.89286V17.7857H8.90625C4.15625 17.7857 0 21.9357 0 26.6786V41.5H95V26.6786C95 21.9357 90.8437 17.7857 86.0937 17.7857ZM59.375 17.7857H35.625V11.8571H59.375V17.7857Z" fill="#0C1825" stroke="white"/>
</svg>
