<svg preserveAspectRatio="none" width="17" height="15" viewBox="0 0 17 15" fill="none" xmlns="http://www.w3.org/2000/svg">
<path d="M17 3.75V13.3929C17 14.2801 16.2861 15 15.4062 15H1.59375C0.713867 15 0 14.2801 0 13.3929V3.75C0 2.86272 0.713867 2.14286 1.59375 2.14286H4.51562L4.92402 1.04129C5.15645 0.415178 5.75078 0 6.41484 0H10.5818C11.2459 0 11.8402 0.415178 12.0727 1.04129L12.4844 2.14286H15.4062C16.2861 2.14286 17 2.86272 17 3.75ZM12.4844 8.57143C12.4844 6.35491 10.698 4.55357 8.5 4.55357C6.30195 4.55357 4.51562 6.35491 4.51562 8.57143C4.51562 10.7879 6.30195 12.5893 8.5 12.5893C10.698 12.5893 12.4844 10.7879 12.4844 8.57143ZM11.4219 8.57143C11.4219 10.1953 10.1104 11.5179 8.5 11.5179C6.88965 11.5179 5.57812 10.1953 5.57812 8.57143C5.57812 6.94754 6.88965 5.625 8.5 5.625C10.1104 5.625 11.4219 6.94754 11.4219 8.57143Z" fill="#01A8FE"/>
</svg>
